<?xml version="1.0" standalone="no"?>
<!DOCTYPE svg PUBLIC "-//W3C//DTD SVG 20010904//EN"
 "http://www.w3.org/TR/2001/REC-SVG-20010904/DTD/svg10.dtd">
<svg version="1.0" xmlns="http://www.w3.org/2000/svg"
 width="843.000000pt" height="843.000000pt" viewBox="0 0 843.000000 843.000000"
 preserveAspectRatio="xMidYMid meet">
<metadata>
Created by potrace 1.14, written by Peter Selinger 2001-2017
</metadata>
<g transform="translate(0.000000,843.000000) scale(0.100000,-0.100000)"
fill="#000000" stroke="none">
<path d="M3710 4635 l0 -2435 444 0 445 0 4 898 c3 791 6 907 21 982 70 355
246 600 499 695 123 46 293 55 427 23 197 -47 351 -204 405 -413 30 -117 34
-262 35 -1217 l0 -968 445 0 445 0 0 1085 c0 696 -4 1121 -11 1183 -30 278
-107 513 -230 702 -61 93 -219 248 -306 299 -293 173 -740 222 -1088 120 -222
-66 -468 -240 -602 -426 -34 -48 -51 -63 -69 -63 -13 0 -24 3 -24 8 0 4 11
126 25 272 24 253 25 298 25 978 l0 712 -445 0 -445 0 0 -2435z"/>
<path d="M1687 5765 c-891 -122 -1497 -834 -1497 -1760 0 -524 182 -965 542
-1311 318 -305 739 -464 1233 -464 319 0 588 59 825 181 242 125 489 352 652
600 70 106 102 169 91 179 -21 18 -808 351 -810 343 -16 -47 -121 -191 -183
-253 -164 -161 -331 -224 -595 -223 -122 0 -151 4 -228 27 -306 92 -521 321
-602 643 -40 161 -40 394 0 556 81 322 295 551 602 643 77 23 106 27 228 27
174 0 258 -17 381 -77 140 -69 248 -181 359 -370 9 -15 53 1 410 150 220 91
403 169 407 173 12 11 -53 137 -133 256 -47 71 -111 148 -179 216 -270 270
-563 413 -953 464 -143 18 -413 18 -550 0z"/>
<path d="M7665 3460 c-124 -25 -260 -103 -348 -201 -171 -188 -210 -475 -95
-703 109 -218 320 -349 563 -350 111 -1 175 14 285 66 114 54 230 169 283 279
179 371 -16 799 -409 899 -80 21 -203 25 -279 10z"/>
</g>
</svg>
